<svg xmlns="http://www.w3.org/2000/svg" xmlns:xlink="http://www.w3.org/1999/xlink" width="1920" zoomAndPan="magnify" viewBox="0 0 1440 809.999993" height="1080" preserveAspectRatio="xMidYMid meet" version="1.0"><defs><g/><clipPath id="8164b5caed"><path d="M 432 332.640625 L 1008 332.640625 L 1008 470 L 432 470 Z M 432 332.640625 " clip-rule="nonzero"/></clipPath></defs><rect x="-144" width="1728" fill="#ffffff" y="-80.999999" height="971.999992" fill-opacity="1"/><rect x="-144" width="1728" fill="#ffffff" y="-80.999999" height="971.999992" fill-opacity="1"/><g clip-path="url(#8164b5caed)"><path fill="#0098fc" d="M 984.785156 434.210938 C 984.785156 420.808594 984.785156 409.355469 984.785156 401.753906 L 984.785156 391.914062 L 984.238281 392.230469 C 980.085938 358.875 951.660156 333.058594 917.1875 333.058594 L 500.355469 332.640625 C 463.019531 332.640625 432.757812 362.910156 432.757812 400.25 L 432.757812 401.335938 C 432.757812 438.675781 463.023438 468.945312 500.355469 468.945312 L 917.1875 469.363281 C 933.429688 469.363281 948.332031 463.628906 959.988281 454.082031 L 959.988281 454.085938 C 959.988281 454.085938 980.636719 477.390625 1007.246094 466.816406 C 1007.246094 466.816406 984.785156 458.53125 984.785156 434.210938 Z M 984.785156 434.210938 " fill-opacity="1" fill-rule="nonzero"/></g><g fill="#ffffff" fill-opacity="1"><g transform="translate(519.855093, 428.624998)"><g><path d="M 42.078125 0 L 31.875 0 L 17.34375 -34.859375 L 11.265625 0 L 0.75 0 L 9.828125 -52.265625 L 20 -52.265625 L 34.5625 -17.34375 L 40.640625 -52.265625 L 51.109375 -52.265625 Z M 42.078125 0 "/></g></g></g><g fill="#ffffff" fill-opacity="1"><g transform="translate(570.573875, 428.624998)"><g><path d="M 22.328125 -39.5625 C 25.742188 -39.507812 28.691406 -38.628906 31.171875 -36.921875 C 33.648438 -35.210938 35.46875 -32.851562 36.625 -29.84375 C 37.789062 -26.84375 38.207031 -23.507812 37.875 -19.84375 C 37.320312 -13.675781 35.171875 -8.679688 31.421875 -4.859375 C 27.679688 -1.046875 23.054688 0.8125 17.546875 0.71875 C 14.171875 0.664062 11.25 -0.203125 8.78125 -1.890625 C 6.320312 -3.578125 4.503906 -5.914062 3.328125 -8.90625 C 2.160156 -11.894531 1.742188 -15.195312 2.078125 -18.8125 C 2.703125 -25.226562 4.878906 -30.320312 8.609375 -34.09375 C 12.347656 -37.875 16.921875 -39.695312 22.328125 -39.5625 Z M 12.09375 -15.109375 C 12.144531 -12.816406 12.679688 -11.003906 13.703125 -9.671875 C 14.734375 -8.347656 16.1875 -7.660156 18.0625 -7.609375 C 21.164062 -7.515625 23.601562 -8.941406 25.375 -11.890625 C 27.144531 -14.847656 27.972656 -18.734375 27.859375 -23.546875 C 27.765625 -25.847656 27.207031 -27.6875 26.1875 -29.0625 C 25.164062 -30.4375 23.710938 -31.144531 21.828125 -31.1875 C 18.804688 -31.289062 16.390625 -29.875 14.578125 -26.9375 C 12.773438 -24.007812 11.945312 -20.066406 12.09375 -15.109375 Z M 12.09375 -15.109375 "/></g></g></g><g fill="#ffffff" fill-opacity="1"><g transform="translate(611.242227, 428.624998)"><g/></g></g><g fill="#ffffff" fill-opacity="1"><g transform="translate(629.368901, 428.624998)"><g><path d="M 22.609375 -10.953125 C 22.992188 -12.859375 21.664062 -14.242188 18.625 -15.109375 L 15.359375 -15.9375 C 7.628906 -18.0625 3.875 -21.816406 4.09375 -27.203125 C 4.207031 -30.867188 5.828125 -33.851562 8.953125 -36.15625 C 12.078125 -38.46875 15.84375 -39.601562 20.25 -39.5625 C 24.625 -39.507812 28.160156 -38.347656 30.859375 -36.078125 C 33.566406 -33.804688 34.945312 -30.78125 35 -27 L 24.953125 -27.03125 C 24.992188 -30.351562 23.34375 -32.039062 20 -32.09375 C 18.414062 -32.09375 17.039062 -31.695312 15.875 -30.90625 C 14.71875 -30.113281 14.007812 -29.050781 13.75 -27.71875 C 13.382812 -25.800781 14.832031 -24.445312 18.09375 -23.65625 L 19.53125 -23.328125 C 22.832031 -22.535156 25.351562 -21.628906 27.09375 -20.609375 C 28.84375 -19.597656 30.191406 -18.335938 31.140625 -16.828125 C 32.085938 -15.328125 32.523438 -13.523438 32.453125 -11.421875 C 32.378906 -8.953125 31.582031 -6.796875 30.0625 -4.953125 C 28.539062 -3.109375 26.457031 -1.679688 23.8125 -0.671875 C 21.164062 0.328125 18.382812 0.789062 15.46875 0.71875 C 11.164062 0.664062 7.578125 -0.570312 4.703125 -3 C 1.828125 -5.425781 0.367188 -8.566406 0.328125 -12.421875 L 9.875 -12.34375 C 9.96875 -8.632812 11.953125 -6.757812 15.828125 -6.71875 C 17.691406 -6.71875 19.226562 -7.097656 20.4375 -7.859375 C 21.644531 -8.628906 22.367188 -9.660156 22.609375 -10.953125 Z M 22.609375 -10.953125 "/></g></g></g><g fill="#ffffff" fill-opacity="1"><g transform="translate(666.376025, 428.624998)"><g><path d="M 37.40625 -19.3125 C 36.90625 -15.238281 35.835938 -11.625 34.203125 -8.46875 C 32.578125 -5.3125 30.554688 -2.96875 28.140625 -1.4375 C 25.722656 0.09375 23.046875 0.820312 20.109375 0.75 C 16.347656 0.65625 13.378906 -0.742188 11.203125 -3.453125 L 7.640625 14.9375 L -2.484375 14.9375 L 6.8125 -38.84375 L 16.15625 -38.875 L 15.46875 -34.96875 C 18.269531 -38.125 21.570312 -39.65625 25.375 -39.5625 C 29.1875 -39.46875 32.144531 -38.082031 34.25 -35.40625 C 36.351562 -32.738281 37.476562 -29.117188 37.625 -24.546875 C 37.664062 -23.066406 37.59375 -21.320312 37.40625 -19.3125 Z M 27.359375 -20.0625 L 27.5625 -23.515625 C 27.613281 -25.835938 27.191406 -27.679688 26.296875 -29.046875 C 25.398438 -30.410156 24.085938 -31.113281 22.359375 -31.15625 C 19.421875 -31.25 16.992188 -30.003906 15.078125 -27.421875 L 12.171875 -11.421875 C 13.054688 -9.003906 14.957031 -7.742188 17.875 -7.640625 C 20.3125 -7.566406 22.34375 -8.507812 23.96875 -10.46875 C 25.601562 -12.4375 26.734375 -15.632812 27.359375 -20.0625 Z M 27.359375 -20.0625 "/></g></g></g><g fill="#ffffff" fill-opacity="1"><g transform="translate(706.864899, 428.624998)"><g><path d="M 22.328125 -39.5625 C 25.742188 -39.507812 28.691406 -38.628906 31.171875 -36.921875 C 33.648438 -35.210938 35.46875 -32.851562 36.625 -29.84375 C 37.789062 -26.84375 38.207031 -23.507812 37.875 -19.84375 C 37.320312 -13.675781 35.171875 -8.679688 31.421875 -4.859375 C 27.679688 -1.046875 23.054688 0.8125 17.546875 0.71875 C 14.171875 0.664062 11.25 -0.203125 8.78125 -1.890625 C 6.320312 -3.578125 4.503906 -5.914062 3.328125 -8.90625 C 2.160156 -11.894531 1.742188 -15.195312 2.078125 -18.8125 C 2.703125 -25.226562 4.878906 -30.320312 8.609375 -34.09375 C 12.347656 -37.875 16.921875 -39.695312 22.328125 -39.5625 Z M 12.09375 -15.109375 C 12.144531 -12.816406 12.679688 -11.003906 13.703125 -9.671875 C 14.734375 -8.347656 16.1875 -7.660156 18.0625 -7.609375 C 21.164062 -7.515625 23.601562 -8.941406 25.375 -11.890625 C 27.144531 -14.847656 27.972656 -18.734375 27.859375 -23.546875 C 27.765625 -25.847656 27.207031 -27.6875 26.1875 -29.0625 C 25.164062 -30.4375 23.710938 -31.144531 21.828125 -31.1875 C 18.804688 -31.289062 16.390625 -29.875 14.578125 -26.9375 C 12.773438 -24.007812 11.945312 -20.066406 12.09375 -15.109375 Z M 12.09375 -15.109375 "/></g></g></g><g fill="#ffffff" fill-opacity="1"><g transform="translate(747.533251, 428.624998)"><g><path d="M 10.8125 0 L 0.609375 0 L 7.359375 -38.84375 L 17.546875 -38.84375 Z M 8.546875 -48.71875 C 8.492188 -50.3125 9.019531 -51.632812 10.125 -52.6875 C 11.226562 -53.75 12.554688 -54.28125 14.109375 -54.28125 C 15.640625 -54.320312 16.96875 -53.851562 18.09375 -52.875 C 19.21875 -51.894531 19.800781 -50.625 19.84375 -49.0625 C 19.894531 -47.582031 19.398438 -46.289062 18.359375 -45.1875 C 17.316406 -44.09375 15.957031 -43.519531 14.28125 -43.46875 C 12.78125 -43.425781 11.457031 -43.878906 10.3125 -44.828125 C 9.175781 -45.785156 8.585938 -47.082031 8.546875 -48.71875 Z M 8.546875 -48.71875 "/></g></g></g><g fill="#ffffff" fill-opacity="1"><g transform="translate(766.808557, 428.624998)"><g><path d="M 10.8125 0 L 0.609375 0 L 10.1875 -55.140625 L 20.359375 -55.140625 Z M 10.8125 0 "/></g></g></g><g fill="#ffffff" fill-opacity="1"><g transform="translate(786.083839, 428.624998)"><g><path d="M 18.5625 0.71875 C 15.164062 0.695312 12.15625 -0.128906 9.53125 -1.765625 C 6.90625 -3.410156 4.945312 -5.660156 3.65625 -8.515625 C 2.363281 -11.378906 1.863281 -14.535156 2.15625 -17.984375 L 2.265625 -19.421875 C 2.617188 -23.203125 3.71875 -26.671875 5.5625 -29.828125 C 7.40625 -32.984375 9.773438 -35.414062 12.671875 -37.125 C 15.566406 -38.84375 18.773438 -39.65625 22.296875 -39.5625 C 27.296875 -39.46875 31.082031 -37.628906 33.65625 -34.046875 C 36.226562 -30.472656 37.203125 -25.941406 36.578125 -20.453125 L 36 -16.046875 L 12.203125 -16.046875 C 12.109375 -13.535156 12.71875 -11.523438 14.03125 -10.015625 C 15.351562 -8.503906 17.148438 -7.726562 19.421875 -7.6875 C 23.109375 -7.582031 26.335938 -9.003906 29.109375 -11.953125 L 33.75 -6.203125 C 32.28125 -4.003906 30.171875 -2.285156 27.421875 -1.046875 C 24.671875 0.179688 21.71875 0.769531 18.5625 0.71875 Z M 21.78125 -31.1875 C 19.914062 -31.238281 18.257812 -30.65625 16.8125 -29.4375 C 15.363281 -28.21875 14.066406 -26.097656 12.921875 -23.078125 L 26.84375 -23.078125 L 27.0625 -24.015625 C 27.207031 -24.972656 27.222656 -25.882812 27.109375 -26.75 C 26.867188 -28.132812 26.28125 -29.210938 25.34375 -29.984375 C 24.40625 -30.765625 23.21875 -31.164062 21.78125 -31.1875 Z M 21.78125 -31.1875 "/></g></g></g><g fill="#ffffff" fill-opacity="1"><g transform="translate(824.99336, 428.624998)"><g><path d="M 26.703125 -29.109375 C 25.316406 -29.347656 24.179688 -29.46875 23.296875 -29.46875 C 19.679688 -29.5625 16.820312 -28.210938 14.71875 -25.421875 L 10.234375 0 L 0.109375 0 L 6.859375 -38.84375 L 16.375 -38.875 L 15.4375 -34.140625 C 17.875 -37.796875 20.890625 -39.625 24.484375 -39.625 C 25.484375 -39.625 26.65625 -39.457031 28 -39.125 Z M 26.703125 -29.109375 "/></g></g></g><g fill="#ffffff" fill-opacity="1"><g transform="translate(851.375744, 428.624998)"><g><path d="M 22.609375 -10.953125 C 22.992188 -12.859375 21.664062 -14.242188 18.625 -15.109375 L 15.359375 -15.9375 C 7.628906 -18.0625 3.875 -21.816406 4.09375 -27.203125 C 4.207031 -30.867188 5.828125 -33.851562 8.953125 -36.15625 C 12.078125 -38.46875 15.84375 -39.601562 20.25 -39.5625 C 24.625 -39.507812 28.160156 -38.347656 30.859375 -36.078125 C 33.566406 -33.804688 34.945312 -30.78125 35 -27 L 24.953125 -27.03125 C 24.992188 -30.351562 23.34375 -32.039062 20 -32.09375 C 18.414062 -32.09375 17.039062 -31.695312 15.875 -30.90625 C 14.71875 -30.113281 14.007812 -29.050781 13.75 -27.71875 C 13.382812 -25.800781 14.832031 -24.445312 18.09375 -23.65625 L 19.53125 -23.328125 C 22.832031 -22.535156 25.351562 -21.628906 27.09375 -20.609375 C 28.84375 -19.597656 30.191406 -18.335938 31.140625 -16.828125 C 32.085938 -15.328125 32.523438 -13.523438 32.453125 -11.421875 C 32.378906 -8.953125 31.582031 -6.796875 30.0625 -4.953125 C 28.539062 -3.109375 26.457031 -1.679688 23.8125 -0.671875 C 21.164062 0.328125 18.382812 0.789062 15.46875 0.71875 C 11.164062 0.664062 7.578125 -0.570312 4.703125 -3 C 1.828125 -5.425781 0.367188 -8.566406 0.328125 -12.421875 L 9.875 -12.34375 C 9.96875 -8.632812 11.953125 -6.757812 15.828125 -6.71875 C 17.691406 -6.71875 19.226562 -7.097656 20.4375 -7.859375 C 21.644531 -8.628906 22.367188 -9.660156 22.609375 -10.953125 Z M 22.609375 -10.953125 "/></g></g></g><g fill="#ffffff" fill-opacity="1"><g transform="translate(888.382868, 428.624998)"><g><path d="M 13.25 -16.046875 L 4.8125 -16.046875 L 9.90625 -52.265625 L 20.71875 -52.265625 Z M 1.46875 -4.703125 C 1.425781 -6.285156 1.929688 -7.617188 2.984375 -8.703125 C 4.035156 -9.796875 5.375 -10.363281 7 -10.40625 C 8.53125 -10.457031 9.859375 -9.984375 10.984375 -8.984375 C 12.109375 -7.992188 12.695312 -6.695312 12.75 -5.09375 C 12.789062 -3.519531 12.285156 -2.179688 11.234375 -1.078125 C 10.179688 0.0234375 8.828125 0.597656 7.171875 0.640625 C 5.503906 0.640625 4.132812 0.113281 3.0625 -0.9375 C 2 -1.988281 1.46875 -3.242188 1.46875 -4.703125 Z M 1.46875 -4.703125 "/></g></g></g></svg>